<svg preserveAspectRatio="none" overflow="visible" style="display: block;" width="26" height="26" viewBox="0 0 26 26" fill="none" xmlns="http://www.w3.org/2000/svg">
<g id="SVG">
<path id="Vector" d="M11.1475 4.18167L1.97167 19.5C1.78248 19.8276 1.68238 20.1991 1.68132 20.5774C1.68026 20.9557 1.77828 21.3277 1.96563 21.6564C2.15298 21.9851 2.42312 22.259 2.74918 22.4508C3.07525 22.6427 3.44587 22.7458 3.82417 22.75H22.1758C22.5541 22.7458 22.9248 22.6427 23.2508 22.4508C23.5769 22.259 23.847 21.9851 24.0344 21.6564C24.2217 21.3277 24.3197 20.9557 24.3187 20.5774C24.3176 20.1991 24.2175 19.8276 24.0283 19.5L15.9358 4.18167C15.7427 3.86328 15.4708 3.60005 15.1463 3.41736C14.8218 3.23467 14.4557 3.13869 14.0833 3.13869C13.711 3.13869 13.3449 3.23467 13.0204 3.41736C12.6959 3.60005 12.424 3.86328 12.2308 4.18167H11.1475Z" stroke="#B3261E" stroke-width="2.38333" stroke-linecap="round" stroke-linejoin="round"/>
<path id="Vector_2" d="M13 9.75V14.0833" stroke="#B3261E" stroke-width="2.38333" stroke-linecap="round" stroke-linejoin="round"/>
<path id="Vector_3" d="M13 18.4167H13.01" stroke="#B3261E" stroke-width="2.38333" stroke-linecap="round" stroke-linejoin="round"/>
</g>
</svg>
